<svg xmlns="http://www.w3.org/2000/svg" xmlns:xlink="http://www.w3.org/1999/xlink" width="500" zoomAndPan="magnify" viewBox="0 0 375 374.999991" height="500" preserveAspectRatio="xMidYMid meet" version="1.0"><defs><clipPath id="aeecc5ef56"><path d="M 112.5 112.5 L 262.5 112.5 L 262.5 262.5 L 112.5 262.5 Z M 112.5 112.5 " clip-rule="nonzero"/></clipPath><clipPath id="a793122431"><path d="M 187.5 0 C 83.945312 0 0 83.945312 0 187.5 C 0 291.054688 83.945312 375 187.5 375 C 291.054688 375 375 291.054688 375 187.5 C 375 83.945312 291.054688 0 187.5 0 Z M 187.5 0 " clip-rule="nonzero"/></clipPath><clipPath id="b73ffb51f6"><path d="M 44.121094 50.238281 L 330.621094 50.238281 L 330.621094 365.988281 L 44.121094 365.988281 Z M 44.121094 50.238281 " clip-rule="nonzero"/></clipPath></defs><g clip-path="url(#aeecc5ef56)"><path fill="#ffffff" d="M 187.5 112.5 C 146.078125 112.5 112.5 146.078125 112.5 187.5 C 112.5 228.921875 146.078125 262.5 187.5 262.5 C 228.921875 262.5 262.5 228.921875 262.5 187.5 C 262.5 146.078125 228.921875 112.5 187.5 112.5 Z M 199.769531 224.480469 L 175.710938 224.480469 L 147.78125 150.519531 L 170.140625 150.519531 L 187.980469 207.558594 L 205.589844 150.519531 L 227.238281 150.519531 L 199.78125 224.480469 Z M 199.769531 224.480469 " fill-opacity="1" fill-rule="nonzero"/></g><g clip-path="url(#a793122431)"><rect x="-37.5" width="450" fill="#ffffff" y="-37.499999" height="449.999989" fill-opacity="1"/></g><g clip-path="url(#b73ffb51f6)"><path fill="#000000" d="M 329.300781 53.707031 C 327.964844 51.820312 325.792969 50.695312 323.476562 50.695312 L 270.492188 50.695312 C 267.457031 50.695312 264.753906 52.613281 263.746094 55.480469 L 187.84375 272.507812 L 187.613281 272.507812 L 111.710938 55.480469 C 110.703125 52.613281 108 50.695312 104.964844 50.695312 L 51.980469 50.695312 C 49.664062 50.695312 47.492188 51.820312 46.15625 53.707031 C 44.8125 55.605469 44.472656 58.027344 45.234375 60.21875 L 150.339844 360.742188 C 151.347656 363.609375 154.046875 365.527344 157.085938 365.527344 L 218.371094 365.527344 C 221.410156 365.527344 224.109375 363.609375 225.117188 360.742188 L 330.222656 60.21875 C 330.984375 58.027344 330.644531 55.605469 329.300781 53.707031 Z M 329.300781 53.707031 " fill-opacity="1" fill-rule="nonzero"/></g></svg>