<svg xmlns="http://www.w3.org/2000/svg" xmlns:xlink="http://www.w3.org/1999/xlink" width="500" zoomAndPan="magnify" viewBox="0 0 375 374.999991" height="500" preserveAspectRatio="xMidYMid meet" version="1.0"><defs><g/><clipPath id="eb58c557be"><path d="M 76.441406 27.019531 L 298.441406 27.019531 L 298.441406 249.019531 L 76.441406 249.019531 Z M 76.441406 27.019531 " clip-rule="nonzero"/></clipPath></defs><g clip-path="url(#eb58c557be)"><path fill="#000000" d="M 98.371094 204.234375 C 84.597656 185.742188 76.441406 162.824219 76.441406 138.019531 C 76.441406 76.757812 126.179688 27.019531 187.441406 27.019531 C 248.707031 27.019531 298.445312 76.757812 298.445312 138.019531 C 298.445312 162.824219 290.289062 185.742188 276.515625 204.234375 L 297.109375 204.234375 C 297.84375 204.234375 298.445312 204.832031 298.445312 205.566406 C 298.445312 206.304688 297.84375 206.902344 297.109375 206.902344 L 274.464844 206.902344 C 254.125 232.554688 222.691406 249.019531 187.441406 249.019531 C 152.195312 249.019531 120.761719 232.554688 100.421875 206.902344 L 77.777344 206.902344 C 77.042969 206.902344 76.441406 206.304688 76.441406 205.566406 C 76.441406 204.832031 77.042969 204.234375 77.777344 204.234375 Z M 273.164062 204.234375 C 287.335938 185.917969 295.773438 162.945312 295.773438 138.019531 C 295.773438 82.433594 253.820312 36.570312 199.875 30.398438 L 199.875 57.570312 L 211.285156 68.132812 C 211.6875 68.503906 211.820312 69.085938 211.621094 69.597656 C 211.417969 70.109375 210.925781 70.445312 210.375 70.445312 L 186.703125 70.445312 C 186.15625 70.445312 185.660156 70.109375 185.460938 69.597656 C 185.261719 69.085938 185.394531 68.503906 185.796875 68.132812 L 197.207031 57.570312 L 197.207031 30.125 C 193.988281 29.835938 190.734375 29.691406 187.441406 29.691406 C 182.773438 29.691406 178.167969 29.984375 173.652344 30.5625 C 173.699219 43.894531 173.699219 57.265625 173.652344 70.65625 C 175.582031 70.945312 177.382812 71.839844 178.777344 73.234375 C 180.488281 74.949219 181.453125 77.273438 181.453125 79.699219 L 181.453125 92.601562 C 181.453125 93.339844 180.855469 93.9375 180.117188 93.9375 L 164.511719 93.9375 C 163.773438 93.9375 163.175781 93.339844 163.175781 92.601562 L 163.175781 79.699219 C 163.175781 77.273438 164.136719 74.949219 165.851562 73.234375 C 167.25 71.839844 169.050781 70.941406 170.984375 70.65625 C 171.027344 57.386719 171.03125 44.144531 170.984375 30.933594 C 157.515625 32.992188 144.855469 37.53125 133.496094 44.074219 L 133.496094 204.234375 L 147.230469 204.234375 L 150.085938 195.375 L 144.105469 195.375 C 143.371094 195.375 142.773438 194.777344 142.773438 194.039062 L 142.773438 155.957031 C 142.773438 155.21875 143.371094 154.621094 144.105469 154.621094 L 152.570312 154.621094 L 150.777344 138.90625 C 150.734375 138.53125 150.855469 138.152344 151.109375 137.867188 C 151.359375 137.585938 151.722656 137.421875 152.101562 137.421875 L 154.566406 137.417969 C 153.238281 136.472656 152.171875 135.363281 151.386719 134.089844 C 149.714844 131.371094 149.273438 127.867188 150.4375 123.414062 C 150.621094 122.710938 151.332031 122.285156 152.039062 122.453125 C 153.507812 122.804688 154.808594 123.253906 155.945312 123.792969 C 156.683594 122.257812 157.796875 120.714844 159.324219 119.167969 C 159.832031 118.648438 160.664062 118.636719 161.191406 119.136719 C 162.855469 120.710938 164.066406 122.285156 164.871094 123.847656 C 166.035156 123.285156 167.371094 122.816406 168.886719 122.453125 C 169.59375 122.285156 170.304688 122.710938 170.488281 123.414062 C 171.652344 127.867188 171.210938 131.371094 169.539062 134.089844 C 168.757812 135.355469 167.699219 136.460938 166.378906 137.402344 L 168.441406 137.402344 C 168.828125 137.402344 169.195312 137.570312 169.449219 137.863281 C 169.703125 138.15625 169.820312 138.542969 169.761719 138.929688 L 167.484375 154.621094 L 204.535156 154.621094 C 205.269531 154.621094 205.867188 155.21875 205.867188 155.957031 L 205.867188 194.039062 C 205.867188 194.777344 205.269531 195.375 204.535156 195.375 L 198.554688 195.375 L 201.40625 204.234375 L 214.878906 204.234375 L 221.664062 183.179688 L 215.851562 183.179688 C 215.113281 183.179688 214.515625 182.582031 214.515625 181.847656 C 214.515625 181.109375 215.113281 180.511719 215.851562 180.511719 L 223.46875 180.511719 C 223.488281 180.511719 223.503906 180.511719 223.523438 180.511719 L 240.804688 180.511719 C 240.824219 180.511719 240.839844 180.511719 240.859375 180.511719 L 247.140625 180.511719 L 247.140625 151.371094 C 247.140625 150.632812 247.738281 150.035156 248.476562 150.035156 C 249.214844 150.035156 249.8125 150.632812 249.8125 151.371094 L 249.8125 181.847656 C 249.8125 182.585938 249.214844 183.179688 248.476562 183.179688 L 242.664062 183.179688 L 249.449219 204.234375 L 263.140625 204.234375 L 263.140625 137.28125 L 252.40625 137.292969 C 252.007812 137.292969 251.628906 137.113281 251.375 136.808594 C 251.121094 136.5 251.019531 136.097656 251.09375 135.707031 L 254.785156 116.367188 C 254.902344 115.734375 255.453125 115.28125 256.09375 115.28125 L 273.648438 115.28125 C 274.308594 115.28125 274.871094 115.765625 274.96875 116.417969 L 277.867188 135.738281 C 277.925781 136.121094 277.8125 136.511719 277.558594 136.804688 C 277.304688 137.097656 276.9375 137.269531 276.546875 137.269531 L 265.8125 137.28125 L 265.8125 204.234375 Z M 227.128906 97.175781 L 227.128906 126.972656 C 227.128906 127.710938 226.53125 128.308594 225.792969 128.308594 L 201.652344 128.308594 C 200.914062 128.308594 200.316406 127.710938 200.316406 126.972656 L 200.316406 97.175781 C 200.316406 96.441406 200.914062 95.84375 201.652344 95.84375 L 225.792969 95.84375 C 226.53125 95.84375 227.128906 96.441406 227.128906 97.175781 Z M 224.460938 98.511719 L 202.984375 98.511719 L 202.984375 125.640625 L 224.460938 125.640625 Z M 220.476562 103.503906 L 220.476562 120.648438 C 220.476562 121.386719 219.878906 121.984375 219.140625 121.984375 L 208.304688 121.984375 C 207.566406 121.984375 206.96875 121.386719 206.96875 120.648438 L 206.96875 103.503906 C 206.96875 102.765625 207.566406 102.167969 208.304688 102.167969 L 219.140625 102.167969 C 219.878906 102.167969 220.476562 102.765625 220.476562 103.503906 Z M 217.804688 104.839844 L 209.640625 104.839844 L 209.640625 119.3125 L 217.804688 119.3125 Z M 112.699219 59.636719 C 110.476562 61.757812 108.339844 63.972656 106.304688 66.273438 L 106.304688 204.234375 L 112.699219 204.234375 Z M 103.632812 69.40625 C 101.367188 72.171875 99.230469 75.054688 97.242188 78.039062 L 97.242188 198 C 98.660156 200.132812 100.15625 202.210938 101.722656 204.234375 L 103.632812 204.234375 Z M 130.824219 45.664062 C 128.640625 47.007812 126.511719 48.425781 124.433594 49.914062 L 124.433594 204.234375 L 130.824219 204.234375 Z M 121.761719 51.890625 C 119.5625 53.570312 117.429688 55.332031 115.367188 57.171875 L 115.367188 204.234375 L 121.761719 204.234375 Z M 94.570312 82.253906 C 92.1875 86.210938 90.046875 90.335938 88.175781 94.605469 L 88.175781 181.433594 C 90.046875 185.703125 92.1875 189.828125 94.570312 193.789062 Z M 85.507812 101.292969 C 81.367188 112.765625 79.113281 125.132812 79.113281 138.019531 C 79.113281 150.910156 81.367188 163.277344 85.507812 174.746094 Z M 103.855469 206.902344 C 123.730469 230.988281 153.808594 246.351562 187.441406 246.351562 C 221.078125 246.351562 251.15625 230.988281 271.03125 206.902344 L 248.503906 206.902344 C 248.484375 206.902344 248.46875 206.902344 248.449219 206.902344 L 215.875 206.902344 C 215.859375 206.902344 215.84375 206.902344 215.824219 206.902344 L 200.460938 206.902344 C 200.445312 206.902344 200.425781 206.902344 200.410156 206.902344 L 148.230469 206.902344 C 148.214844 206.902344 148.195312 206.902344 148.179688 206.902344 Z M 172.308594 73.230469 C 170.59375 73.230469 168.953125 73.914062 167.738281 75.125 C 166.527344 76.335938 165.84375 77.980469 165.84375 79.699219 L 165.84375 91.269531 C 165.84375 91.269531 178.78125 91.269531 178.78125 91.269531 L 178.78125 79.699219 C 178.78125 77.980469 178.101562 76.335938 176.886719 75.125 C 175.675781 73.910156 174.03125 73.230469 172.316406 73.230469 Z M 155.257812 154.601562 L 164.789062 154.601562 L 166.898438 140.074219 L 153.601562 140.089844 Z M 206.96875 67.777344 L 198.539062 59.972656 L 190.109375 67.777344 Z M 162.582031 125.226562 C 162.0625 124.171875 161.304688 123.109375 160.308594 122.035156 C 159.402344 123.082031 158.722656 124.121094 158.25 125.15625 C 159.132812 125.808594 159.867188 126.535156 160.464844 127.328125 C 161.039062 126.5625 161.742188 125.859375 162.582031 125.226562 Z M 163.148438 136.25 C 164.957031 135.332031 166.355469 134.167969 167.265625 132.6875 C 168.441406 130.777344 168.765625 128.371094 168.203125 125.40625 C 167.328125 125.675781 166.535156 125.988281 165.824219 126.347656 C 166.050781 127.265625 166.144531 128.175781 166.117188 129.074219 C 166.03125 131.527344 165.011719 133.941406 163.148438 136.25 Z M 152.890625 195.375 L 150.039062 204.234375 L 198.601562 204.234375 L 195.75 195.375 Z M 264.546875 134.609375 L 274.996094 134.601562 L 272.5 117.949219 L 257.199219 117.949219 C 257.199219 117.949219 254.019531 134.621094 254.019531 134.621094 L 264.402344 134.609375 C 264.425781 134.609375 264.449219 134.609375 264.476562 134.609375 C 264.5 134.609375 264.523438 134.609375 264.546875 134.609375 Z M 159.023438 130.0625 C 158.988281 129.992188 158.953125 129.921875 158.917969 129.855469 C 158.554688 129.175781 158.082031 128.558594 157.496094 128 C 157.476562 128.269531 157.46875 128.539062 157.476562 128.808594 C 157.511719 130.085938 157.863281 131.351562 158.488281 132.609375 C 158.570312 131.714844 158.75 130.863281 159.023438 130.0625 Z M 162.429688 132.558594 C 163.054688 131.390625 163.40625 130.203125 163.445312 128.984375 C 163.457031 128.660156 163.445312 128.335938 163.414062 128.011719 C 162.835938 128.570312 162.367188 129.183594 162.007812 129.855469 C 161.972656 129.921875 161.9375 129.992188 161.902344 130.0625 C 162.171875 130.847656 162.347656 131.683594 162.429688 132.558594 Z M 155.054688 126.324219 C 154.359375 125.976562 153.582031 125.671875 152.722656 125.40625 C 152.160156 128.371094 152.484375 130.777344 153.660156 132.6875 C 154.523438 134.09375 155.832031 135.214844 157.511719 136.113281 C 155.800781 133.722656 154.878906 131.308594 154.808594 128.886719 C 154.785156 128.035156 154.863281 127.183594 155.054688 126.324219 Z M 224.46875 183.179688 L 217.683594 204.234375 L 246.644531 204.234375 L 239.859375 183.179688 Z M 145.441406 176.332031 L 145.441406 192.707031 L 196.695312 192.707031 C 196.710938 192.707031 196.730469 192.707031 196.746094 192.707031 L 203.199219 192.707031 L 203.199219 176.332031 Z M 174.957031 183.171875 C 175.703125 183.171875 176.304688 183.773438 176.304688 184.519531 C 176.304688 185.265625 175.703125 185.871094 174.957031 185.871094 L 173.683594 185.871094 C 172.9375 185.871094 172.335938 185.265625 172.335938 184.519531 C 172.335938 183.773438 172.9375 183.171875 173.683594 183.171875 Z M 203.199219 173.664062 L 203.199219 157.292969 L 145.441406 157.292969 L 145.441406 173.664062 Z M 174.957031 164.128906 C 175.703125 164.128906 176.304688 164.734375 176.304688 165.476562 C 176.304688 166.222656 175.703125 166.828125 174.957031 166.828125 L 173.683594 166.828125 C 172.9375 166.828125 172.335938 166.222656 172.335938 165.476562 C 172.335938 164.734375 172.9375 164.128906 173.683594 164.128906 Z M 174.957031 164.128906 " fill-opacity="1" fill-rule="evenodd"/></g><g fill="#000000" fill-opacity="1"><g transform="translate(128.981859, 299.025337)"><g><path d="M 14.65625 0 L 11.34375 0 L 1.1875 -31.609375 L 4.84375 -31.609375 L 13 -5.03125 L 21.171875 -31.609375 L 24.8125 -31.609375 Z M 14.65625 0 "/></g></g></g><g fill="#000000" fill-opacity="1"><g transform="translate(164.478159, 299.025337)"><g><path d="M 6.59375 -15.796875 C 6.59375 -13.804688 6.609375 -12.359375 6.640625 -11.453125 C 6.671875 -10.554688 6.78125 -9.601562 6.96875 -8.59375 C 7.164062 -7.582031 7.453125 -6.742188 7.828125 -6.078125 C 9.035156 -4.046875 11.046875 -3.03125 13.859375 -3.03125 C 16.671875 -3.03125 18.679688 -4.046875 19.890625 -6.078125 C 20.453125 -6.992188 20.796875 -8.125 20.921875 -9.46875 C 21.046875 -10.8125 21.109375 -12.921875 21.109375 -15.796875 C 21.109375 -17.796875 21.09375 -19.242188 21.0625 -20.140625 C 21.03125 -21.046875 20.921875 -22.003906 20.734375 -23.015625 C 20.546875 -24.023438 20.265625 -24.863281 19.890625 -25.53125 C 18.679688 -27.550781 16.671875 -28.5625 13.859375 -28.5625 C 11.046875 -28.5625 9.035156 -27.550781 7.828125 -25.53125 C 7.253906 -24.613281 6.90625 -23.484375 6.78125 -22.140625 C 6.65625 -20.796875 6.59375 -18.679688 6.59375 -15.796875 Z M 3.078125 -15.796875 C 3.078125 -18.109375 3.101562 -19.769531 3.15625 -20.78125 C 3.207031 -21.789062 3.359375 -22.890625 3.609375 -24.078125 C 3.859375 -25.265625 4.253906 -26.300781 4.796875 -27.1875 C 5.679688 -28.644531 6.921875 -29.789062 8.515625 -30.625 C 10.117188 -31.46875 11.898438 -31.890625 13.859375 -31.890625 C 15.816406 -31.890625 17.59375 -31.46875 19.1875 -30.625 C 20.789062 -29.789062 22.035156 -28.644531 22.921875 -27.1875 C 23.710938 -25.925781 24.191406 -24.535156 24.359375 -23.015625 C 24.535156 -21.492188 24.625 -19.085938 24.625 -15.796875 C 24.625 -13.492188 24.597656 -11.832031 24.546875 -10.8125 C 24.503906 -9.800781 24.359375 -8.703125 24.109375 -7.515625 C 23.859375 -6.328125 23.460938 -5.289062 22.921875 -4.40625 C 22.035156 -2.957031 20.789062 -1.8125 19.1875 -0.96875 C 17.59375 -0.132812 15.816406 0.28125 13.859375 0.28125 C 11.898438 0.28125 10.117188 -0.132812 8.515625 -0.96875 C 6.921875 -1.8125 5.679688 -2.957031 4.796875 -4.40625 C 4.003906 -5.675781 3.519531 -7.066406 3.34375 -8.578125 C 3.164062 -10.097656 3.078125 -12.503906 3.078125 -15.796875 Z M 3.078125 -15.796875 "/></g></g></g><g fill="#000000" fill-opacity="1"><g transform="translate(201.682754, 299.025337)"><g><path d="M 7.078125 -31.609375 L 7.078125 0 L 3.5625 0 L 3.5625 -31.609375 Z M 7.078125 -31.609375 "/></g></g></g><g fill="#000000" fill-opacity="1"><g transform="translate(221.804382, 299.025337)"><g><path d="M 11.71875 -31.890625 C 15.039062 -31.890625 17.890625 -31.003906 20.265625 -29.234375 L 18.453125 -26.390625 C 16.648438 -27.835938 14.40625 -28.5625 11.71875 -28.5625 C 9.757812 -28.5625 8.289062 -28.09375 7.3125 -27.15625 C 6.332031 -26.226562 5.84375 -25.132812 5.84375 -23.875 C 5.84375 -22.382812 6.472656 -21.132812 7.734375 -20.125 C 8.492188 -19.488281 10.015625 -18.820312 12.296875 -18.125 C 15.265625 -17.238281 17.398438 -16.242188 18.703125 -15.140625 C 20.785156 -13.335938 21.828125 -11.140625 21.828125 -8.546875 C 21.828125 -6.171875 20.941406 -4.101562 19.171875 -2.34375 C 17.398438 -0.59375 14.914062 0.28125 11.71875 0.28125 C 8.144531 0.28125 5 -0.789062 2.28125 -2.9375 L 4.265625 -5.640625 C 6.390625 -3.898438 8.875 -3.03125 11.71875 -3.03125 C 13.9375 -3.03125 15.585938 -3.582031 16.671875 -4.6875 C 17.765625 -5.800781 18.3125 -7.085938 18.3125 -8.546875 C 18.3125 -10.222656 17.617188 -11.628906 16.234375 -12.765625 C 15.410156 -13.460938 13.601562 -14.238281 10.8125 -15.09375 C 8.382812 -15.820312 6.535156 -16.707031 5.265625 -17.75 C 4.410156 -18.445312 3.707031 -19.332031 3.15625 -20.40625 C 2.601562 -21.476562 2.328125 -22.601562 2.328125 -23.78125 C 2.328125 -26.082031 3.171875 -28.007812 4.859375 -29.5625 C 6.554688 -31.113281 8.84375 -31.890625 11.71875 -31.890625 Z M 11.71875 -31.890625 "/></g></g></g><g fill="#000000" fill-opacity="1"><g transform="translate(141.991296, 339.207214)"><g><path d="M 10.6875 -13.6875 L 10.6875 0 L 9.25 0 L 9.25 -2.078125 C 8.476562 -0.640625 7.21875 0.078125 5.46875 0.078125 C 4.082031 0.078125 2.953125 -0.378906 2.078125 -1.296875 C 1.210938 -2.222656 0.78125 -3.410156 0.78125 -4.859375 C 0.78125 -6.316406 1.210938 -7.503906 2.078125 -8.421875 C 2.941406 -9.335938 4.0625 -9.796875 5.4375 -9.796875 C 6.300781 -9.796875 7.0625 -9.609375 7.71875 -9.234375 C 8.375 -8.859375 8.882812 -8.320312 9.25 -7.625 L 9.25 -13.6875 Z M 5.734375 -1.21875 C 6.753906 -1.21875 7.59375 -1.554688 8.25 -2.234375 C 8.914062 -2.910156 9.25 -3.773438 9.25 -4.828125 C 9.25 -5.890625 8.914062 -6.765625 8.25 -7.453125 C 7.59375 -8.140625 6.753906 -8.484375 5.734375 -8.484375 C 4.703125 -8.484375 3.859375 -8.140625 3.203125 -7.453125 C 2.546875 -6.765625 2.21875 -5.890625 2.21875 -4.828125 C 2.21875 -3.773438 2.546875 -2.910156 3.203125 -2.234375 C 3.859375 -1.554688 4.703125 -1.21875 5.734375 -1.21875 Z M 5.734375 -1.21875 "/></g></g></g><g fill="#000000" fill-opacity="1"><g transform="translate(158.209522, 339.207214)"><g><path d="M 5.59375 -9.765625 C 7.125 -9.773438 8.28125 -9.285156 9.0625 -8.296875 C 9.84375 -7.316406 10.195312 -5.984375 10.125 -4.296875 L 2.203125 -4.296875 C 2.316406 -3.347656 2.691406 -2.59375 3.328125 -2.03125 C 3.972656 -1.476562 4.769531 -1.203125 5.71875 -1.203125 C 6.945312 -1.203125 7.953125 -1.609375 8.734375 -2.421875 L 9.515625 -1.5625 C 8.546875 -0.476562 7.242188 0.0625 5.609375 0.0625 C 4.179688 0.0625 3.019531 -0.390625 2.125 -1.296875 C 1.226562 -2.210938 0.78125 -3.394531 0.78125 -4.84375 C 0.78125 -6.300781 1.226562 -7.484375 2.125 -8.390625 C 3.019531 -9.304688 4.175781 -9.765625 5.59375 -9.765625 Z M 2.203125 -5.484375 L 8.84375 -5.484375 C 8.789062 -6.421875 8.472656 -7.160156 7.890625 -7.703125 C 7.304688 -8.253906 6.539062 -8.53125 5.59375 -8.53125 C 4.664062 -8.53125 3.894531 -8.25 3.28125 -7.6875 C 2.664062 -7.132812 2.304688 -6.398438 2.203125 -5.484375 Z M 2.203125 -5.484375 "/></g></g></g><g fill="#000000" fill-opacity="1"><g transform="translate(172.748897, 339.207214)"><g><path d="M 4.34375 -9.78125 C 5.539062 -9.78125 6.570312 -9.484375 7.4375 -8.890625 L 6.890625 -7.75 C 6.046875 -8.28125 5.164062 -8.546875 4.25 -8.546875 C 3.664062 -8.546875 3.195312 -8.4375 2.84375 -8.21875 C 2.5 -8 2.328125 -7.675781 2.328125 -7.25 C 2.328125 -6.851562 2.515625 -6.535156 2.890625 -6.296875 C 3.265625 -6.054688 3.710938 -5.863281 4.234375 -5.71875 C 4.765625 -5.570312 5.296875 -5.398438 5.828125 -5.203125 C 6.359375 -5.015625 6.8125 -4.710938 7.1875 -4.296875 C 7.5625 -3.878906 7.75 -3.351562 7.75 -2.71875 C 7.75 -1.800781 7.40625 -1.109375 6.71875 -0.640625 C 6.039062 -0.171875 5.195312 0.0625 4.1875 0.0625 C 2.644531 0.0625 1.40625 -0.394531 0.46875 -1.3125 L 1.015625 -2.40625 C 1.421875 -2.019531 1.914062 -1.710938 2.5 -1.484375 C 3.082031 -1.265625 3.664062 -1.15625 4.25 -1.15625 C 4.84375 -1.15625 5.332031 -1.269531 5.71875 -1.5 C 6.113281 -1.738281 6.316406 -2.085938 6.328125 -2.546875 C 6.335938 -2.972656 6.15625 -3.316406 5.78125 -3.578125 C 5.414062 -3.835938 4.96875 -4.039062 4.4375 -4.1875 C 3.914062 -4.34375 3.390625 -4.507812 2.859375 -4.6875 C 2.328125 -4.875 1.875 -5.171875 1.5 -5.578125 C 1.132812 -5.984375 0.953125 -6.503906 0.953125 -7.140625 C 0.953125 -8.015625 1.273438 -8.671875 1.921875 -9.109375 C 2.566406 -9.554688 3.375 -9.78125 4.34375 -9.78125 Z M 4.34375 -9.78125 "/></g></g></g><g fill="#000000" fill-opacity="1"><g transform="translate(184.797666, 339.207214)"><g><path d="M 1.78125 -13.21875 C 1.957031 -13.40625 2.179688 -13.5 2.453125 -13.5 C 2.722656 -13.5 2.945312 -13.40625 3.125 -13.21875 C 3.300781 -13.03125 3.390625 -12.796875 3.390625 -12.515625 C 3.390625 -12.234375 3.300781 -11.992188 3.125 -11.796875 C 2.945312 -11.609375 2.722656 -11.515625 2.453125 -11.515625 C 2.179688 -11.515625 1.957031 -11.609375 1.78125 -11.796875 C 1.601562 -11.992188 1.515625 -12.234375 1.515625 -12.515625 C 1.515625 -12.796875 1.601562 -13.03125 1.78125 -13.21875 Z M 3.171875 0 L 1.75 0 L 1.75 -9.71875 L 3.171875 -9.71875 Z M 3.171875 0 "/></g></g></g><g fill="#000000" fill-opacity="1"><g transform="translate(193.414939, 339.207214)"><g><path d="M 10.21875 -9.71875 L 10.21875 -1.015625 C 10.21875 0.398438 9.769531 1.523438 8.875 2.359375 C 7.988281 3.191406 6.804688 3.609375 5.328125 3.609375 C 3.890625 3.597656 2.5625 3.132812 1.34375 2.21875 L 2.015625 1.109375 C 2.984375 1.921875 4.070312 2.332031 5.28125 2.34375 C 6.332031 2.34375 7.175781 2.039062 7.8125 1.4375 C 8.457031 0.832031 8.78125 0.0234375 8.78125 -0.984375 L 8.78125 -2.453125 C 8.070312 -1.097656 6.878906 -0.421875 5.203125 -0.421875 C 3.898438 -0.421875 2.835938 -0.859375 2.015625 -1.734375 C 1.191406 -2.609375 0.78125 -3.738281 0.78125 -5.125 C 0.78125 -6.476562 1.179688 -7.585938 1.984375 -8.453125 C 2.796875 -9.328125 3.859375 -9.769531 5.171875 -9.78125 C 6.835938 -9.78125 8.039062 -9.101562 8.78125 -7.75 L 8.78125 -9.71875 Z M 3.0625 -2.609375 C 3.6875 -1.960938 4.484375 -1.640625 5.453125 -1.640625 C 6.429688 -1.640625 7.226562 -1.960938 7.84375 -2.609375 C 8.46875 -3.253906 8.78125 -4.078125 8.78125 -5.078125 C 8.78125 -6.085938 8.46875 -6.914062 7.84375 -7.5625 C 7.226562 -8.207031 6.429688 -8.53125 5.453125 -8.53125 C 4.484375 -8.53125 3.6875 -8.207031 3.0625 -7.5625 C 2.445312 -6.914062 2.132812 -6.085938 2.125 -5.078125 C 2.132812 -4.078125 2.445312 -3.253906 3.0625 -2.609375 Z M 3.0625 -2.609375 "/></g></g></g><g fill="#000000" fill-opacity="1"><g transform="translate(208.839859, 339.207214)"><g><path d="M 6.953125 -9.78125 C 8.109375 -9.78125 9.007812 -9.441406 9.65625 -8.765625 C 10.3125 -8.097656 10.640625 -7.175781 10.640625 -6 L 10.640625 0 L 9.203125 0 L 9.203125 -5.609375 C 9.203125 -6.472656 8.957031 -7.144531 8.46875 -7.625 C 7.988281 -8.101562 7.316406 -8.34375 6.453125 -8.34375 C 5.503906 -8.332031 4.742188 -8.039062 4.171875 -7.46875 C 3.609375 -6.90625 3.28125 -6.15625 3.1875 -5.21875 L 3.1875 0 L 1.75 0 L 1.75 -9.71875 L 3.1875 -9.71875 L 3.1875 -7.578125 C 3.851562 -9.023438 5.109375 -9.757812 6.953125 -9.78125 Z M 6.953125 -9.78125 "/></g></g></g><g fill="#000000" fill-opacity="1"><g transform="translate(224.633765, 339.207214)"><g><path d="M 4.34375 -9.78125 C 5.539062 -9.78125 6.570312 -9.484375 7.4375 -8.890625 L 6.890625 -7.75 C 6.046875 -8.28125 5.164062 -8.546875 4.25 -8.546875 C 3.664062 -8.546875 3.195312 -8.4375 2.84375 -8.21875 C 2.5 -8 2.328125 -7.675781 2.328125 -7.25 C 2.328125 -6.851562 2.515625 -6.535156 2.890625 -6.296875 C 3.265625 -6.054688 3.710938 -5.863281 4.234375 -5.71875 C 4.765625 -5.570312 5.296875 -5.398438 5.828125 -5.203125 C 6.359375 -5.015625 6.8125 -4.710938 7.1875 -4.296875 C 7.5625 -3.878906 7.75 -3.351562 7.75 -2.71875 C 7.75 -1.800781 7.40625 -1.109375 6.71875 -0.640625 C 6.039062 -0.171875 5.195312 0.0625 4.1875 0.0625 C 2.644531 0.0625 1.40625 -0.394531 0.46875 -1.3125 L 1.015625 -2.40625 C 1.421875 -2.019531 1.914062 -1.710938 2.5 -1.484375 C 3.082031 -1.265625 3.664062 -1.15625 4.25 -1.15625 C 4.84375 -1.15625 5.332031 -1.269531 5.71875 -1.5 C 6.113281 -1.738281 6.316406 -2.085938 6.328125 -2.546875 C 6.335938 -2.972656 6.15625 -3.316406 5.78125 -3.578125 C 5.414062 -3.835938 4.96875 -4.039062 4.4375 -4.1875 C 3.914062 -4.34375 3.390625 -4.507812 2.859375 -4.6875 C 2.328125 -4.875 1.875 -5.171875 1.5 -5.578125 C 1.132812 -5.984375 0.953125 -6.503906 0.953125 -7.140625 C 0.953125 -8.015625 1.273438 -8.671875 1.921875 -9.109375 C 2.566406 -9.554688 3.375 -9.78125 4.34375 -9.78125 Z M 4.34375 -9.78125 "/></g></g></g></svg>