<svg xmlns="http://www.w3.org/2000/svg" xmlns:xlink="http://www.w3.org/1999/xlink" width="500" zoomAndPan="magnify" viewBox="0 0 375 374.999991" height="500" preserveAspectRatio="xMidYMid meet" version="1.0"><defs><clipPath id="35927331be"><path d="M 16.789062 89 L 183.289062 89 L 183.289062 253.242188 L 16.789062 253.242188 Z M 16.789062 89 " clip-rule="nonzero"/></clipPath><clipPath id="838d46525b"><path d="M 191 89 L 357.882812 89 L 357.882812 253 L 191 253 Z M 191 89 " clip-rule="nonzero"/></clipPath></defs><path fill="#000000" d="M 141.789062 127.703125 C 142.085938 127.394531 142.417969 127.082031 142.480469 127 C 143.503906 125.75 144.347656 124.332031 144.984375 122.847656 C 146.722656 118.792969 147.003906 114.65625 146.441406 110.316406 C 146.269531 109.011719 146.046875 107.710938 145.847656 106.410156 C 145.824219 106.25 145.792969 105.324219 145.59375 105.257812 C 145.449219 105.210938 145.011719 106.4375 144.972656 106.535156 C 144.347656 108.050781 143.679688 109.554688 142.945312 111.019531 C 140.910156 115.097656 138.949219 119.351562 138.679688 123.96875 C 138.589844 125.539062 138.660156 127.703125 139.875 128.945312 C 138.625 137.113281 140.191406 145.21875 140.566406 153.410156 C 140.402344 152.65625 140.214844 151.90625 140.003906 151.160156 C 138.160156 144.585938 134.578125 139.0625 129.472656 134.554688 C 128.367188 133.582031 127.242188 132.636719 126.089844 131.722656 C 125.957031 131.617188 125.167969 130.851562 124.992188 130.96875 C 124.730469 131.148438 125.121094 132.667969 125.160156 132.917969 C 125.480469 135.046875 125.882812 137.164062 126.210938 139.292969 C 127.273438 146.128906 130.886719 152.0625 135.574219 157.023438 C 136.75 158.269531 138.617188 160.550781 140.445312 161.164062 C 139.789062 168.515625 137.546875 175.449219 134.171875 181.980469 C 134.390625 181.019531 134.589844 180.050781 134.769531 179.078125 C 135.53125 174.988281 136.351562 169.570312 134.753906 165.4375 C 135.011719 165.289062 135.25 165.09375 135.449219 164.855469 C 136.347656 163.773438 136.195312 162.171875 135.109375 161.28125 C 134.027344 160.386719 132.421875 160.539062 131.523438 161.617188 C 130.628906 162.699219 130.78125 164.300781 131.863281 165.191406 C 132.222656 165.488281 132.640625 165.671875 133.074219 165.742188 C 134.75 169.617188 133.855469 174.855469 133.125 178.773438 C 133.027344 179.300781 132.925781 179.828125 132.816406 180.351562 C 133.136719 175.101562 132.539062 169.65625 130.417969 164.820312 C 130.128906 164.164062 128.65625 160.199219 127.597656 160.226562 C 127.324219 160.234375 127.277344 161.65625 127.25 161.847656 C 126.980469 163.660156 126.511719 165.453125 126.027344 167.21875 C 124.351562 173.324219 124.421875 178.90625 126.761719 184.910156 C 127.4375 186.644531 128.878906 188.054688 129.585938 189.726562 C 127.59375 192.796875 125.53125 195.816406 123.527344 198.875 C 123.511719 198.351562 123.488281 197.828125 123.464844 197.304688 C 123.316406 194.160156 122.777344 191.097656 121.628906 188.164062 C 121.601562 188.09375 121.566406 188.027344 121.523438 187.96875 C 121.582031 187.910156 121.640625 187.847656 121.695312 187.785156 C 122.59375 186.703125 122.441406 185.101562 121.355469 184.210938 C 120.273438 183.316406 118.667969 183.46875 117.769531 184.546875 C 116.875 185.628906 117.023438 187.226562 118.109375 188.121094 C 118.671875 188.582031 119.371094 188.765625 120.042969 188.683594 C 120.050781 188.710938 120.0625 188.738281 120.070312 188.765625 C 121.152344 191.535156 121.652344 194.421875 121.792969 197.382812 C 121.839844 198.414062 121.878906 199.449219 121.894531 200.480469 C 121.894531 200.636719 121.804688 200.847656 121.75 201.050781 C 121.671875 201.328125 121.625 201.59375 121.628906 201.792969 L 121.628906 201.820312 C 119.761719 204.773438 117.988281 207.785156 116.425781 210.933594 C 115.441406 212.902344 116.957031 213.613281 117.921875 211.671875 C 119.304688 208.898438 120.847656 206.226562 122.476562 203.609375 C 123.027344 203.367188 123.632812 203.136719 123.683594 203.117188 C 126.210938 202.203125 128.996094 201.757812 131.65625 201.492188 C 137.917969 200.867188 142.796875 198.777344 146.398438 193.441406 C 146.945312 192.628906 149.199219 189.691406 148.828125 188.550781 C 148.800781 188.472656 147.375 189.082031 147.273438 189.117188 C 145.480469 189.765625 143.707031 190.441406 141.9375 191.15625 C 137.898438 192.796875 133.984375 194.597656 130.054688 196.472656 C 128.476562 197.226562 126.972656 197.878906 125.609375 198.746094 C 127.964844 195.183594 130.382812 191.65625 132.648438 188.027344 C 135.121094 184.066406 137.207031 179.949219 138.804688 175.675781 C 139.300781 175.703125 140.140625 175.867188 140.46875 175.851562 C 142.046875 175.777344 143.601562 175.503906 145.125 175.097656 C 151.585938 173.378906 157.03125 168.898438 160.703125 163.417969 C 161.902344 161.632812 163.027344 159.773438 163.941406 157.832031 C 164.070312 157.566406 164.78125 156.320312 164.433594 156.011719 C 164.261719 155.859375 163.042969 156.984375 162.894531 157.09375 C 161.300781 158.261719 159.519531 159.105469 157.796875 160.058594 C 152.378906 163.0625 146.824219 166.296875 142.179688 170.488281 C 142.722656 169.507812 143.273438 168.53125 143.84375 167.566406 C 146.445312 163.175781 149.15625 159.046875 153.171875 155.832031 C 153.183594 155.824219 153.199219 155.8125 153.210938 155.800781 C 154.277344 156.476562 155.707031 156.269531 156.535156 155.273438 C 157.429688 154.195312 157.277344 152.59375 156.195312 151.699219 C 155.109375 150.804688 153.503906 150.957031 152.609375 152.039062 C 152.015625 152.75 151.882812 153.6875 152.167969 154.5 C 152.152344 154.511719 152.140625 154.519531 152.125 154.53125 C 147.949219 157.875 145.109375 162.15625 142.402344 166.71875 C 141.800781 167.734375 141.222656 168.765625 140.648438 169.800781 C 141.640625 165.925781 142.214844 161.929688 142.304688 157.808594 C 142.371094 154.582031 142.140625 151.375 141.859375 148.175781 C 141.9375 147.976562 142.085938 147.476562 142.207031 147.289062 C 142.609375 146.675781 143.050781 146.082031 143.53125 145.527344 C 144.886719 143.949219 146.472656 142.570312 148.050781 141.214844 C 153.230469 136.777344 157.21875 132.539062 159.546875 125.957031 C 160.074219 124.472656 160.535156 122.945312 160.789062 121.386719 C 160.820312 121.199219 161.117188 120.019531 160.921875 119.859375 C 160.835938 119.789062 159.472656 121.140625 159.375 121.222656 C 157.699219 122.664062 155.925781 124 154.179688 125.355469 C 150.152344 128.476562 147.71875 132.523438 145.21875 136.871094 C 144.511719 138.097656 143.839844 139.234375 143.234375 140.347656 C 143.472656 139.082031 143.746094 137.824219 144.089844 136.582031 C 145.503906 131.429688 147.4375 126.464844 150.359375 121.980469 C 151.292969 122.230469 152.332031 121.9375 152.988281 121.148438 C 153.886719 120.066406 153.734375 118.464844 152.652344 117.574219 C 151.566406 116.679688 149.960938 116.832031 149.066406 117.910156 C 148.304688 118.828125 148.296875 120.121094 148.976562 121.039062 C 145.945312 125.675781 143.9375 130.808594 142.476562 136.144531 C 141.972656 137.972656 141.605469 139.832031 141.292969 141.699219 C 140.949219 137.039062 140.855469 132.382812 141.789062 127.703125 Z M 141.789062 127.703125 " fill-opacity="1" fill-rule="evenodd"/><g clip-path="url(#35927331be)"><path fill="#000000" d="M 124.347656 207.871094 L 113.277344 203.84375 L 110.21875 211.417969 L 66.203125 112.734375 C 64.25 108.347656 63.191406 104.855469 63.027344 102.257812 C 63.027344 98.519531 64.574219 96.164062 67.671875 95.191406 C 70.933594 94.378906 75.578125 93.972656 81.605469 93.972656 L 81.605469 89.097656 L 16.804688 89.097656 L 16.804688 93.972656 C 22.511719 93.972656 26.917969 95.269531 30.015625 97.871094 C 32.785156 100.308594 35.390625 103.878906 37.835938 108.589844 L 103.128906 253.085938 L 106.304688 253.085938 Z M 151.167969 107.066406 L 162.871094 111.328125 C 165.613281 104.449219 168.449219 99.878906 171.351562 97.625 C 174.613281 95.191406 178.601562 93.972656 183.332031 93.972656 L 183.332031 89.097656 L 133.203125 89.097656 L 133.203125 93.972656 C 145.269531 93.972656 151.296875 97.625 151.296875 104.9375 C 151.296875 105.613281 151.253906 106.320312 151.167969 107.066406 Z M 151.167969 107.066406 " fill-opacity="1" fill-rule="nonzero"/></g><path fill="#000000" d="M 211.472656 134.566406 C 211.628906 134.117188 211.820312 133.652344 211.847656 133.539062 C 212.296875 131.808594 212.488281 129.992188 212.445312 128.203125 C 212.324219 123.316406 210.691406 119.015625 208.113281 114.902344 C 207.339844 113.664062 206.511719 112.453125 205.710938 111.234375 C 205.613281 111.085938 205.148438 110.167969 204.921875 110.191406 C 204.753906 110.210938 204.878906 111.648438 204.882812 111.765625 C 204.957031 113.578125 204.980469 115.402344 204.921875 117.21875 C 204.757812 122.261719 204.75 127.453125 206.617188 132.230469 C 207.25 133.855469 208.324219 136.003906 210.117188 136.699219 C 212.640625 145.507812 217.96875 152.957031 222.136719 161.042969 C 221.621094 160.355469 221.085938 159.6875 220.53125 159.03125 C 215.628906 153.253906 209.46875 149.332031 202.242188 147.136719 C 200.679688 146.660156 199.109375 146.230469 197.523438 145.839844 C 197.339844 145.792969 196.191406 145.378906 196.070312 145.582031 C 195.886719 145.882812 196.984375 147.234375 197.140625 147.46875 C 198.449219 149.46875 199.832031 151.417969 201.148438 153.414062 C 205.378906 159.8125 211.761719 164.132812 218.78125 166.980469 C 220.539062 167.691406 223.476562 169.132812 225.601562 168.914062 C 228.339844 176.625 229.289062 184.648438 228.914062 192.785156 C 228.691406 191.710938 228.441406 190.640625 228.175781 189.582031 C 227.046875 185.109375 225.367188 179.269531 221.847656 175.839844 C 222.039062 175.570312 222.1875 175.265625 222.277344 174.929688 C 222.679688 173.429688 221.785156 171.886719 220.28125 171.484375 C 218.777344 171.082031 217.230469 171.972656 216.828125 173.472656 C 216.421875 174.972656 217.316406 176.519531 218.820312 176.921875 C 219.320312 177.054688 219.828125 177.042969 220.292969 176.917969 C 223.777344 180.054688 225.296875 185.746094 226.375 190.03125 C 226.523438 190.605469 226.660156 191.183594 226.792969 191.761719 C 224.6875 186.320312 221.570312 181.109375 217.195312 177.210938 C 216.597656 176.679688 213.28125 173.359375 212.230469 173.878906 C 211.957031 174.011719 212.566406 175.464844 212.625 175.667969 C 213.195312 177.621094 213.554688 179.644531 213.882812 181.648438 C 215.019531 188.570312 217.671875 194.167969 222.808594 199.140625 C 224.289062 200.578125 226.394531 201.339844 227.875 202.699219 C 227.292969 206.710938 226.613281 210.703125 226.007812 214.707031 C 225.75 214.183594 225.488281 213.667969 225.21875 213.152344 C 223.617188 210.050781 221.65625 207.210938 219.144531 204.78125 C 219.082031 204.722656 219.019531 204.675781 218.945312 204.636719 C 218.980469 204.546875 219.007812 204.460938 219.03125 204.367188 C 219.4375 202.867188 218.542969 201.324219 217.039062 200.921875 C 215.535156 200.519531 213.984375 201.410156 213.582031 202.910156 C 213.179688 204.410156 214.074219 205.957031 215.578125 206.359375 C 216.355469 206.566406 217.148438 206.425781 217.785156 206.035156 C 217.808594 206.058594 217.828125 206.085938 217.855469 206.105469 C 220.21875 208.398438 222.0625 211.078125 223.574219 214 C 224.101562 215.015625 224.613281 216.042969 225.109375 217.078125 C 225.179688 217.230469 225.1875 217.488281 225.226562 217.714844 C 225.277344 218.03125 225.351562 218.324219 225.445312 218.519531 L 225.460938 218.546875 C 224.949219 222.382812 224.554688 226.234375 224.433594 230.125 C 224.359375 232.566406 224.445312 235.007812 224.53125 237.445312 C 224.546875 237.882812 224.445312 238.785156 224.550781 239.460938 C 224.625 239.953125 224.808594 240.359375 225.0625 240.621094 C 225.417969 240.992188 226.003906 241.003906 226.371094 240.648438 C 226.730469 240.308594 226.75 239.746094 226.429688 239.378906 C 226.421875 239.320312 226.351562 238.953125 226.347656 238.722656 C 226.34375 238.210938 226.394531 237.683594 226.382812 237.382812 C 226.300781 234.984375 226.210938 232.582031 226.285156 230.183594 C 226.394531 226.75 226.714844 223.347656 227.140625 219.960938 C 227.585938 219.460938 228.085938 218.953125 228.128906 218.910156 C 230.253906 216.828125 232.847656 215.097656 235.40625 213.605469 C 241.421875 210.09375 245.367188 205.746094 246.523438 198.710938 C 246.703125 197.640625 247.613281 193.644531 246.710938 192.667969 C 246.648438 192.597656 245.492188 193.867188 245.40625 193.953125 C 243.902344 195.429688 242.425781 196.925781 240.980469 198.460938 C 237.671875 201.972656 234.5625 205.585938 231.472656 209.285156 C 230.230469 210.769531 229.019531 212.117188 228.046875 213.617188 C 228.769531 208.945312 229.570312 204.277344 230.175781 199.578125 C 230.835938 194.445312 231.03125 189.335938 230.660156 184.296875 C 231.175781 184.09375 232.09375 183.875 232.421875 183.707031 C 233.972656 182.90625 235.414062 181.917969 236.757812 180.808594 C 242.46875 176.101562 245.878906 169.085938 247.042969 161.867188 C 247.421875 159.519531 247.695312 157.128906 247.71875 154.746094 C 247.722656 154.421875 247.867188 152.839844 247.371094 152.6875 C 247.128906 152.613281 246.421875 154.3125 246.324219 154.484375 C 245.257812 156.398438 243.855469 158.066406 242.5625 159.820312 C 238.496094 165.339844 234.398438 171.15625 231.660156 177.515625 C 231.753906 176.277344 231.855469 175.039062 231.984375 173.804688 C 232.574219 168.183594 233.394531 162.773438 235.949219 157.6875 C 235.957031 157.671875 235.964844 157.652344 235.972656 157.636719 C 237.359375 157.828125 238.703125 156.960938 239.074219 155.578125 C 239.480469 154.078125 238.585938 152.53125 237.082031 152.128906 C 235.578125 151.730469 234.027344 152.621094 233.625 154.121094 C 233.359375 155.109375 233.65625 156.117188 234.324219 156.804688 C 234.3125 156.824219 234.300781 156.839844 234.292969 156.859375 C 231.636719 162.144531 230.753906 167.765625 230.140625 173.609375 C 230.003906 174.914062 229.898438 176.21875 229.800781 177.527344 C 229.007812 173.164062 227.738281 168.871094 225.917969 164.679688 C 224.496094 161.394531 222.777344 158.265625 221.015625 155.171875 C 221.003906 154.933594 220.917969 154.359375 220.957031 154.117188 C 221.078125 153.316406 221.25 152.511719 221.472656 151.734375 C 222.109375 149.515625 223.066406 147.398438 224.03125 145.308594 C 227.191406 138.449219 229.25 132.347656 228.546875 124.640625 C 228.390625 122.902344 228.148438 121.148438 227.683594 119.460938 C 227.628906 119.257812 227.382812 117.933594 227.113281 117.859375 C 226.992188 117.828125 226.242188 119.820312 226.183594 119.949219 C 225.164062 122.171875 223.996094 124.332031 222.863281 126.5 C 220.25 131.5 219.675781 136.695312 219.167969 142.230469 C 219.023438 143.792969 218.871094 145.246094 218.777344 146.648438 C 218.433594 145.261719 218.128906 143.867188 217.898438 142.457031 C 216.9375 136.613281 216.585938 130.71875 217.457031 124.855469 C 218.511719 124.679688 219.425781 123.90625 219.71875 122.808594 C 220.121094 121.304688 219.230469 119.761719 217.722656 119.359375 C 216.21875 118.957031 214.671875 119.851562 214.269531 121.351562 C 213.925781 122.625 214.519531 123.929688 215.628906 124.542969 C 214.722656 130.609375 215.074219 136.710938 216.070312 142.757812 C 216.410156 144.832031 216.898438 146.875 217.449219 148.902344 C 214.945312 144.363281 212.699219 139.714844 211.472656 134.566406 Z M 228.171875 195.902344 C 228.1875 195.894531 228.199219 195.886719 228.214844 195.878906 C 228.199219 195.886719 228.1875 195.894531 228.171875 195.902344 Z M 228.171875 195.902344 " fill-opacity="1" fill-rule="evenodd"/><g clip-path="url(#838d46525b)"><path fill="#000000" d="M 213.652344 114.648438 C 213.613281 109.570312 213.285156 105.796875 212.664062 103.328125 C 211.835938 100.523438 210.515625 98.464844 208.699219 97.144531 C 207.046875 96.15625 204.652344 95.414062 201.511719 94.921875 L 191.847656 93.4375 L 191.847656 89.234375 L 259.503906 89.234375 C 277.84375 89.234375 293.625 91.789062 306.84375 96.898438 C 322.867188 102.503906 335.261719 111.238281 344.019531 123.101562 C 348.476562 129.367188 351.945312 136.371094 354.425781 144.117188 C 356.738281 152.519531 357.890625 161.585938 357.890625 171.308594 C 357.890625 174.441406 357.652344 177.902344 357.152344 181.691406 C 356.824219 184.492188 356.164062 187.953125 355.171875 192.074219 C 354.675781 194.710938 353.597656 198.089844 351.945312 202.210938 C 350.792969 205.671875 349.304688 208.96875 347.488281 212.097656 C 345.835938 215.230469 343.847656 218.195312 341.542969 221 C 339.390625 223.636719 336.914062 226.355469 334.105469 229.15625 C 328.976562 233.933594 322.953125 238.136719 316.011719 241.765625 C 308.246094 245.882812 300.644531 248.6875 293.210938 250.167969 C 284.617188 251.980469 276.441406 252.886719 268.675781 252.886719 L 191.847656 252.886719 L 191.847656 247.945312 C 194.324219 247.945312 197.050781 247.777344 200.023438 247.449219 C 201.84375 247.285156 203.824219 246.871094 205.972656 246.214844 C 209.113281 245.058594 211.175781 243.082031 212.167969 240.28125 C 213.160156 237.480469 213.65625 233.027344 213.65625 226.929688 L 213.65625 223.324219 L 239.183594 223.324219 L 239.183594 234.59375 C 239.183594 238.054688 240.089844 240.445312 241.910156 241.765625 C 243.726562 243.082031 247.359375 243.742188 252.8125 243.742188 C 268.179688 243.742188 280.734375 241.929688 290.484375 238.304688 C 300.5625 234.511719 308.988281 228.742188 315.761719 221 C 320.554688 215.558594 324.269531 208.554688 326.914062 199.984375 C 329.390625 191.582031 330.628906 182.515625 330.628906 172.792969 C 330.628906 163.070312 329.226562 153.59375 326.421875 144.363281 C 323.78125 135.792969 319.726562 128.542969 314.28125 122.609375 C 305.847656 113.710938 296.597656 107.445312 286.519531 103.820312 C 276.109375 100.195312 263.882812 98.382812 249.839844 98.382812 C 246.203125 98.382812 243.5625 98.957031 241.910156 100.113281 C 240.089844 101.429688 239.183594 103.410156 239.183594 106.046875 L 239.183594 114.648438 Z M 213.652344 114.648438 " fill-opacity="1" fill-rule="nonzero"/></g></svg>